<svg width="16" height="16" viewBox="0 0 16 16" fill="none" xmlns="http://www.w3.org/2000/svg">
<path d="M11.826 15.1672H5.08601C4.87268 15.1672 4.68601 15.0338 4.61268 14.8405C4.53935 14.6405 4.59935 14.4205 4.75935 14.2872C4.91935 14.1538 5.06602 13.9805 5.17268 13.7938C5.38602 13.4538 5.49268 13.0672 5.49268 12.6738C5.49268 11.4805 4.51935 10.5072 3.32601 10.5072C2.83268 10.5072 2.36602 10.6738 1.97268 10.9871C1.81935 11.1071 1.61935 11.1272 1.44601 11.0472C1.27268 10.9672 1.16602 10.7872 1.16602 10.5938V7.6805C1.16602 6.0205 2.51268 4.67383 4.17268 4.67383H11.826C13.486 4.67383 14.8327 6.0205 14.8327 7.6805V8.6405C14.8327 8.91384 14.606 9.1405 14.3327 9.1405H12.986C12.7527 9.1405 12.5394 9.22717 12.386 9.38717L12.3793 9.39384C12.1927 9.57384 12.106 9.82048 12.126 10.0738C12.166 10.5138 12.586 10.8671 13.066 10.8671H14.3327C14.606 10.8671 14.8327 11.0938 14.8327 11.3671V12.1605C14.8327 13.8205 13.486 15.1672 11.826 15.1672ZM6.11935 14.1672H11.826C12.9327 14.1672 13.8327 13.2671 13.8327 12.1605V11.8671H13.066C12.0593 11.8671 11.206 11.1205 11.126 10.1605C11.0727 9.61382 11.2727 9.07383 11.6727 8.6805C12.0194 8.32717 12.486 8.13383 12.986 8.13383H13.8327V7.67383C13.8327 6.56716 12.9327 5.66715 11.826 5.66715H4.17268C3.06602 5.66715 2.16602 6.56716 2.16602 7.67383V9.72717C2.53935 9.58051 2.93268 9.50049 3.33268 9.50049C5.07935 9.50049 6.49935 10.9205 6.49935 12.6672C6.49935 13.1938 6.36602 13.7138 6.11935 14.1672Z" fill="white"/>
<path d="M1.66602 8.77399C1.39268 8.77399 1.16602 8.54732 1.16602 8.27399V5.22736C1.16602 4.23403 1.79268 3.33399 2.71935 2.98065L8.01268 0.980655C8.55268 0.773988 9.16602 0.847354 9.63935 1.18069C10.1193 1.51402 10.3993 2.05402 10.3993 2.63402V5.16734C10.3993 5.44067 10.1727 5.66734 9.89935 5.66734C9.62601 5.66734 9.39935 5.44067 9.39935 5.16734V2.63402C9.39935 2.38068 9.27935 2.14734 9.06601 2.00067C8.85268 1.85401 8.59935 1.82067 8.35935 1.914L3.06601 3.914C2.52601 4.12067 2.15935 4.64736 2.15935 5.22736V8.27399C2.16601 8.55399 1.93935 8.77399 1.66602 8.77399Z" fill="white"/>
<path d="M13.0657 11.8661C12.059 11.8661 11.2057 11.1195 11.1257 10.1595C11.0723 9.60613 11.2723 9.06614 11.6723 8.67281C12.0123 8.32614 12.479 8.13281 12.979 8.13281H14.3657C15.0257 8.15281 15.5323 8.67278 15.5323 9.31278V10.6862C15.5323 11.3262 15.0257 11.8461 14.3857 11.8661H13.0657ZM14.3523 9.13281H12.9857C12.7523 9.13281 12.539 9.21948 12.3857 9.37948C12.1923 9.56614 12.099 9.81946 12.1257 10.0728C12.1657 10.5128 12.5857 10.8661 13.0657 10.8661H14.3723C14.459 10.8661 14.539 10.7862 14.539 10.6862V9.31278C14.539 9.21278 14.459 9.13948 14.3523 9.13281Z" fill="white"/>
<path d="M9.33268 8.5H4.66602C4.39268 8.5 4.16602 8.27333 4.16602 8C4.16602 7.72667 4.39268 7.5 4.66602 7.5H9.33268C9.60602 7.5 9.83268 7.72667 9.83268 8C9.83268 8.27333 9.60602 8.5 9.33268 8.5Z" fill="white"/>
<path d="M3.33268 15.8333C2.22602 15.8333 1.18602 15.2467 0.626017 14.2933C0.326017 13.8133 0.166016 13.2467 0.166016 12.6667C0.166016 11.6933 0.599348 10.7933 1.35268 10.1933C1.91268 9.74665 2.61935 9.5 3.33268 9.5C5.07935 9.5 6.49935 10.92 6.49935 12.6667C6.49935 13.2467 6.33935 13.8133 6.03935 14.3C5.87935 14.58 5.65935 14.8333 5.40602 15.0467C4.85268 15.5533 4.11268 15.8333 3.33268 15.8333ZM3.33268 10.5C2.83935 10.5 2.37268 10.6666 1.97935 10.98C1.46602 11.3866 1.16602 12.0067 1.16602 12.6667C1.16602 13.06 1.27268 13.4467 1.47935 13.78C1.87268 14.4467 2.56602 14.8333 3.33268 14.8333C3.85935 14.8333 4.36601 14.64 4.75268 14.2933C4.92601 14.1467 5.07268 13.9733 5.17935 13.7867C5.39268 13.4467 5.49935 13.06 5.49935 12.6667C5.49935 11.4733 4.52602 10.5 3.33268 10.5Z" fill="white"/>
<path d="M4.32732 13.1523H2.33398C2.06065 13.1523 1.83398 12.9257 1.83398 12.6523C1.83398 12.379 2.06065 12.1523 2.33398 12.1523H4.32732C4.60065 12.1523 4.82732 12.379 4.82732 12.6523C4.82732 12.9257 4.60732 13.1523 4.32732 13.1523Z" fill="white"/>
<path d="M3.33398 14.173C3.06065 14.173 2.83398 13.9463 2.83398 13.673V11.6797C2.83398 11.4064 3.06065 11.1797 3.33398 11.1797C3.60732 11.1797 3.83398 11.4064 3.83398 11.6797V13.673C3.83398 13.953 3.60732 14.173 3.33398 14.173Z" fill="white"/>
</svg>
