<svg width="21" height="20" viewBox="0 0 21 20" fill="none" xmlns="http://www.w3.org/2000/svg">
<path d="M13 18.9584H8C4.325 18.9584 3.20833 17.8417 3.20833 14.1667V5.83335C3.20833 2.15835 4.325 1.04169 8 1.04169H13C16.675 1.04169 17.7917 2.15835 17.7917 5.83335V14.1667C17.7917 17.8417 16.675 18.9584 13 18.9584ZM8 2.29169C5.01667 2.29169 4.45833 2.85835 4.45833 5.83335V14.1667C4.45833 17.1417 5.01667 17.7084 8 17.7084H13C15.9833 17.7084 16.5417 17.1417 16.5417 14.1667V5.83335C16.5417 2.85835 15.9833 2.29169 13 2.29169H8Z" fill="#5B5656"/>
<path d="M12.1667 5.20831H8.83333C8.49167 5.20831 8.20833 4.92498 8.20833 4.58331C8.20833 4.24165 8.49167 3.95831 8.83333 3.95831H12.1667C12.5083 3.95831 12.7917 4.24165 12.7917 4.58331C12.7917 4.92498 12.5083 5.20831 12.1667 5.20831Z" fill="#5B5656"/>
<path d="M10.5 16.55C9.44167 16.55 8.58333 15.6917 8.58333 14.6333C8.58333 13.575 9.44167 12.7167 10.5 12.7167C11.5583 12.7167 12.4167 13.575 12.4167 14.6333C12.4167 15.6917 11.5583 16.55 10.5 16.55ZM10.5 13.9583C10.1333 13.9583 9.83333 14.2583 9.83333 14.625C9.83333 14.9917 10.1333 15.2917 10.5 15.2917C10.8667 15.2917 11.1667 14.9917 11.1667 14.625C11.1667 14.2583 10.8667 13.9583 10.5 13.9583Z" fill="#5B5656"/>
</svg>
