<svg width="20" height="17" viewBox="0 0 20 17" fill="none" xmlns="http://www.w3.org/2000/svg">
<path d="M19.1667 7.49971H2.54208L8.90792 1.43638C9.24125 1.11888 9.25417 0.591382 8.93667 0.258048C8.61958 -0.0748684 8.09208 -0.0882019 7.75833 0.229298L0.488333 7.1543C0.17375 7.4693 0 7.88763 0 8.33305C0 8.77805 0.17375 9.1968 0.502917 9.52555L7.75875 16.4364C7.92 16.5901 8.12667 16.6664 8.33333 16.6664C8.55333 16.6664 8.77333 16.5797 8.93708 16.4076C9.25458 16.0743 9.24167 15.5472 8.90833 15.2297L2.51583 9.16638H19.1667C19.6267 9.16638 20 8.79305 20 8.33305C20 7.87305 19.6267 7.49971 19.1667 7.49971Z" fill="#313131"/>
</svg>
