<svg width="21" height="18" viewBox="0 0 21 18" fill="none" xmlns="http://www.w3.org/2000/svg">
<path d="M19.4375 8.1877H3.22853L9.43522 2.27595C9.76022 1.96639 9.77281 1.45207 9.46325 1.12707C9.15409 0.802479 8.63978 0.789479 8.31438 1.09904L1.22612 7.85092C0.919406 8.15804 0.75 8.56592 0.75 9.0002C0.75 9.43407 0.919406 9.84235 1.24034 10.1629L8.31478 16.9009C8.472 17.0509 8.6735 17.1252 8.875 17.1252C9.0895 17.1252 9.304 17.0407 9.46366 16.8729C9.77322 16.5479 9.76062 16.034 9.43563 15.7244L3.20294 9.8127H19.4375C19.886 9.8127 20.25 9.4487 20.25 9.0002C20.25 8.5517 19.886 8.1877 19.4375 8.1877Z" fill="#F9F9FF"/>
</svg>
