<svg width="21" height="20" viewBox="0 0 21 20" fill="none" xmlns="http://www.w3.org/2000/svg">
<path d="M10.5 18.9584C9.85 18.9584 9.21666 18.625 8.78333 18.0417L7.94166 16.9167C7.76666 16.6834 7.53333 16.55 7.28333 16.5334C7.03333 16.525 6.78333 16.6334 6.58333 16.8417L6.10833 16.4167L6.56666 16.8417C5.36666 18.125 4.44166 18.025 4 17.85C3.55 17.675 2.79166 17.1 2.79166 15.25V5.86669C2.79166 2.16669 3.85833 1.04169 7.35 1.04169H13.65C17.1417 1.04169 18.2083 2.16669 18.2083 5.86669V15.25C18.2083 17.0917 17.45 17.6667 17 17.85C16.5583 18.025 15.6417 18.125 14.4333 16.8417C14.2333 16.625 13.9833 16.5084 13.725 16.5334C13.475 16.55 13.2333 16.6834 13.0583 16.9167L12.2167 18.0417C11.7833 18.625 11.15 18.9584 10.5 18.9584ZM7.23333 15.275C7.26666 15.275 7.30833 15.275 7.34166 15.275C7.95833 15.3084 8.54166 15.6334 8.93333 16.1584L9.775 17.2834C10.1833 17.825 10.8083 17.825 11.2167 17.2834L12.0583 16.1584C12.4583 15.6334 13.0333 15.3084 13.6583 15.275C14.275 15.2417 14.8917 15.5 15.3417 15.9834C15.975 16.6584 16.3833 16.7417 16.5333 16.6834C16.7333 16.6 16.95 16.1167 16.95 15.25V5.86669C16.95 2.85835 16.425 2.29169 13.6417 2.29169H7.35C4.56666 2.29169 4.04166 2.85835 4.04166 5.86669V15.25C4.04166 16.125 4.25833 16.6084 4.45833 16.6834C4.6 16.7417 5.01666 16.6584 5.65 15.9834C6.1 15.525 6.65833 15.275 7.23333 15.275Z" fill="#5B5656"/>
<path d="M14.025 9.79169H9.44167C9.1 9.79169 8.81667 9.50835 8.81667 9.16669C8.81667 8.82502 9.1 8.54169 9.44167 8.54169H14.025C14.3667 8.54169 14.65 8.82502 14.65 9.16669C14.65 9.50835 14.3667 9.79169 14.025 9.79169Z" fill="#5B5656"/>
<path d="M14.025 6.45831H9.44167C9.1 6.45831 8.81667 6.17498 8.81667 5.83331C8.81667 5.49165 9.1 5.20831 9.44167 5.20831H14.025C14.3667 5.20831 14.65 5.49165 14.65 5.83331C14.65 6.17498 14.3667 6.45831 14.025 6.45831Z" fill="#5B5656"/>
<path d="M6.98333 6.66667C6.525 6.66667 6.15 6.29167 6.15 5.83333C6.15 5.375 6.525 5 6.98333 5C7.44167 5 7.81667 5.375 7.81667 5.83333C7.81667 6.29167 7.44167 6.66667 6.98333 6.66667Z" fill="#5B5656"/>
<path d="M6.98333 9.99998C6.525 9.99998 6.15 9.62498 6.15 9.16665C6.15 8.70831 6.525 8.33331 6.98333 8.33331C7.44167 8.33331 7.81667 8.70831 7.81667 9.16665C7.81667 9.62498 7.44167 9.99998 6.98333 9.99998Z" fill="#5B5656"/>
</svg>
