<svg width="48" height="48" viewBox="0 0 48 48" fill="none" xmlns="http://www.w3.org/2000/svg">
<path d="M24 48C37.2548 48 48 37.2548 48 24C48 10.7452 37.2548 0 24 0C10.7452 0 0 10.7452 0 24C0 37.2548 10.7452 48 24 48Z" fill="#A682FF"/>
<path fill-rule="evenodd" clip-rule="evenodd" d="M24.42 34.9875C25.4755 34.9142 26.5219 34.7434 27.546 34.4775C28.8098 34.8632 30.1458 34.9504 31.449 34.7325C31.5006 34.7242 31.5528 34.7202 31.605 34.7205C32.07 34.7205 32.6805 34.9905 33.57 35.5605V34.623C33.5702 34.4608 33.6135 34.3016 33.6955 34.1616C33.7774 34.0217 33.8951 33.906 34.0365 33.8265C34.4235 33.6075 34.7835 33.3555 35.112 33.078C36.408 31.98 37.14 30.516 37.14 28.965C37.14 28.4445 37.0575 27.939 36.9015 27.456C37.293 26.7255 37.6095 25.9575 37.842 25.161C38.5937 26.2875 38.9965 27.6107 39 28.965C39 31.0725 38.019 33.0375 36.3225 34.4745C36.0393 34.7142 35.7412 34.9356 35.43 35.1375V37.329C35.43 38.0835 34.56 38.517 33.9465 38.0685C33.3664 37.6348 32.7657 37.2294 32.1465 36.8535C31.9692 36.7474 31.7847 36.6537 31.5945 36.573C31.0845 36.6495 30.5625 36.6885 30.036 36.6885C27.918 36.6885 25.9605 36.054 24.42 34.9875ZM13.221 30.6045C10.545 28.335 9 25.2435 9 21.93C9 15.1605 15.387 9.75 23.1855 9.75C30.9855 9.75 37.3725 15.1605 37.3725 21.93C37.3725 28.701 30.984 34.1115 23.1855 34.1115C22.3095 34.1115 21.4425 34.044 20.5935 33.909C20.226 33.996 18.7575 34.869 16.641 36.414C15.8745 36.975 14.787 36.4335 14.787 35.49V31.752C14.2389 31.4065 13.7156 31.023 13.221 30.6045ZM20.6445 31.6035C20.709 31.6035 20.775 31.608 20.8395 31.6185C21.6045 31.7475 22.3905 31.8135 23.1855 31.8135C29.7735 31.8135 35.046 27.3465 35.046 21.93C35.046 16.515 29.7735 12.048 23.1855 12.048C16.6005 12.048 11.325 16.515 11.325 21.93C11.325 24.549 12.5565 27.015 14.7345 28.86C15.282 29.322 15.8835 29.742 16.5285 30.108C16.89 30.312 17.1135 30.693 17.1135 31.104V33.2595C18.7875 32.136 19.8885 31.6035 20.6445 31.6035ZM17.139 24.2295C16.1115 24.2295 15.279 23.4045 15.279 22.3905C15.279 21.375 16.1115 20.5515 17.139 20.5515C18.1665 20.5515 18.999 21.375 18.999 22.3905C18.999 23.406 18.1665 24.2295 17.139 24.2295ZM23.1855 24.2295C22.158 24.2295 21.3255 23.4045 21.3255 22.3905C21.3255 21.375 22.158 20.5515 23.1855 20.5515C24.213 20.5515 25.0455 21.375 25.0455 22.3905C25.0455 23.406 24.213 24.2295 23.1855 24.2295ZM29.232 24.2295C28.2045 24.2295 27.372 23.4045 27.372 22.3905C27.372 21.375 28.2045 20.5515 29.232 20.5515C30.2595 20.5515 31.092 21.375 31.092 22.3905C31.092 23.406 30.2595 24.2295 29.232 24.2295Z" fill="white"/>
</svg>
