<svg width="60" height="13" viewBox="0 0 60 13" fill="none" xmlns="http://www.w3.org/2000/svg">
<g clip-path="url(#clip0_182_65)">
<g clip-path="url(#clip1_182_65)">
<path d="M47.7668 5.54022C47.7668 7.04187 46.6402 7.97484 44.8402 7.97484H43.4836V9.83253H41.9243V3.09572H44.8402C46.6402 3.09572 47.7668 4.02869 47.7668 5.54022ZM46.1877 5.54022C46.1877 4.79847 45.7064 4.36577 44.7537 4.36577H43.4836V6.70479H44.7528C45.7064 6.70479 46.1877 6.27127 46.1877 5.54022Z" fill="#A682FF"/>
<path d="M53.7437 4.65175V9.83005H52.3088V9.23335C51.9338 9.68582 51.3849 9.9067 50.6926 9.9067C49.2289 9.9067 48.1031 8.86741 48.1031 7.24049C48.1031 5.61357 49.2289 4.5751 50.6926 4.5751C51.3272 4.5751 51.8662 4.77703 52.2421 5.20065V4.65175H53.7437ZM52.2709 7.24049C52.2709 6.34543 51.694 5.80642 50.9522 5.80642C50.2105 5.80642 49.6237 6.34543 49.6237 7.24049C49.6237 8.13554 50.2006 8.67455 50.9522 8.67455C51.7039 8.67455 52.2709 8.13966 52.2709 7.24379V7.24049Z" fill="#A682FF"/>
<path d="M60.0001 4.62868L57.6611 10.1251C57.1608 11.3762 56.4487 11.7512 55.5182 11.7512C54.9891 11.7512 54.4113 11.5781 54.0742 11.2798L54.6232 10.2083C54.8582 10.4141 55.1581 10.5308 55.4704 10.538C55.8825 10.538 56.1149 10.3551 56.3168 9.89269L56.3366 9.84489L54.094 4.62785H55.6435L57.0965 8.14132L58.5594 4.62785L60.0001 4.62868Z" fill="#A682FF"/>
<path d="M19.9451 8.36549C20.2576 8.18709 20.5144 7.92545 20.6869 7.60972C20.865 7.26958 20.9581 6.89134 20.9581 6.50739C20.9581 6.12343 20.865 5.74519 20.6869 5.40505C20.5141 5.08973 20.2574 4.82842 19.9451 4.65011C19.6186 4.47237 19.2528 4.37924 18.8811 4.37924C18.5094 4.37924 18.1436 4.47237 17.8171 4.65011C17.5032 4.82768 17.245 5.08908 17.0712 5.40505C16.8931 5.74519 16.8 6.12343 16.8 6.50739C16.8 6.89134 16.8931 7.26958 17.0712 7.60972C17.2447 7.9261 17.503 8.18783 17.8171 8.36549C18.1436 8.54323 18.5094 8.63635 18.8811 8.63635C19.2528 8.63635 19.6186 8.54323 19.9451 8.36549ZM17.0111 9.50038C16.4721 9.21773 16.0216 8.79196 15.7089 8.26989C15.4005 7.73367 15.2383 7.12594 15.2383 6.50739C15.2383 5.88883 15.4005 5.28111 15.7089 4.74489C16.0218 4.22322 16.4723 3.79778 17.0111 3.51521C17.5886 3.22156 18.2274 3.0685 18.8753 3.0685C19.5233 3.0685 20.1621 3.22156 20.7396 3.51521C21.2831 3.80145 21.7368 4.23253 22.0505 4.76071C22.3641 5.2889 22.5254 5.89358 22.5166 6.5078C22.5251 7.12196 22.3637 7.72653 22.0501 8.25466C21.7365 8.78279 21.283 9.21393 20.7396 9.50038C20.1621 9.79404 19.5233 9.9471 18.8753 9.9471C18.2274 9.9471 17.5886 9.79404 17.0111 9.50038Z" fill="#173E87"/>
<path d="M31.4011 5.21137C31.778 5.5872 31.9662 6.15231 31.9657 6.9067V9.83253H30.4822V7.135C30.4822 6.72951 30.3984 6.42731 30.2308 6.22841C30.0632 6.02951 29.8239 5.92978 29.5129 5.92923C29.1651 5.92923 28.8904 6.04159 28.6887 6.26632C28.4871 6.49104 28.3857 6.82511 28.3846 7.26852V9.83335H26.9011V7.135C26.9011 6.3306 26.5783 5.92841 25.9327 5.92841C25.7801 5.92146 25.6278 5.94805 25.4865 6.00629C25.3453 6.06452 25.2185 6.153 25.1151 6.26549C24.9124 6.49077 24.811 6.82483 24.811 7.26769V9.83253H23.3275V4.72264H24.7434V5.3111C24.9348 5.09425 25.1741 4.92495 25.4423 4.81659C25.7302 4.69998 26.0384 4.64198 26.3489 4.64599C26.6871 4.64087 27.0219 4.71392 27.3272 4.85945C27.6142 4.99846 27.8574 5.21373 28.0302 5.4817C28.2409 5.21452 28.5133 5.00241 28.8239 4.86357C29.1539 4.71641 29.5118 4.64219 29.8731 4.64599C30.5137 4.64599 31.0223 4.83445 31.3986 5.21137" fill="#173E87"/>
<path d="M37.7028 5.21549C38.0929 5.59571 38.2877 6.15945 38.2871 6.9067V9.83335H36.8036V7.135C36.8036 6.7295 36.7149 6.42731 36.5374 6.2284C36.3599 6.0295 36.1039 5.9295 35.7692 5.9284C35.3951 5.9284 35.0975 6.04379 34.8767 6.27456C34.6558 6.50533 34.5459 6.84901 34.547 7.3056V9.83335H33.0635V4.72346H34.4794V5.32181C34.6819 5.10204 34.9319 4.93149 35.2105 4.82318C35.516 4.7027 35.8422 4.6428 36.1706 4.64681C36.8028 4.64681 37.3154 4.83719 37.7044 5.21714" fill="#173E87"/>
<path d="M40.8685 5.9449C40.8602 5.93583 39.8737 5.75039 39.8737 5.45039C39.8737 5.15039 40.8668 4.95588 40.8668 4.95588C40.8668 4.95588 40.8668 4.04929 40.8668 3.58858H39.3833V9.83006H40.8668C40.8668 9.66523 40.8709 7.47539 40.8668 5.94242" fill="#173E87"/>
</g>
<g clip-path="url(#clip2_182_65)">
<path d="M6.46971 13.2514C5.56403 13.2502 4.66222 13.1333 3.78615 12.9037C3.70211 12.8879 3.62264 12.8536 3.55352 12.8033C3.4844 12.753 3.42737 12.6879 3.38658 12.6127C3.24845 12.3506 3.10786 12.0892 2.97056 11.8262C2.94671 11.781 2.91054 11.7292 2.94836 11.6807C2.98618 11.6322 3.05442 11.6437 3.11279 11.6618C3.87277 11.9021 4.67772 11.9651 5.46584 11.8459C6.59052 11.6941 7.64339 11.2072 8.48732 10.4487C9.24644 9.77429 9.80654 8.90514 10.107 7.93535C10.2262 7.55399 10.3306 7.16359 10.3208 6.7584C10.3142 6.52087 10.403 6.28745 10.3388 6.0491C10.3273 6.00636 10.3347 5.94883 10.389 5.94061C10.4433 5.93239 10.4712 5.98499 10.4984 6.03266C10.7008 6.4457 10.8476 6.88375 10.9349 7.33537C11.0398 7.8433 11.0774 8.3628 11.0467 8.88053C10.9765 9.89084 10.6419 10.865 10.0766 11.7054C9.79761 12.1268 9.45953 12.506 9.07271 12.8314C8.94536 12.9339 8.79398 13.0024 8.63285 13.0303C7.91941 13.1728 7.19396 13.2469 6.46642 13.2514" fill="#173E87"/>
<path d="M4.75216 11.458C3.61921 11.4276 2.61945 11.1687 1.70109 10.6131C1.45444 10.4635 1.3492 10.212 1.22752 9.98187C0.760824 9.12005 0.420788 8.19551 0.217892 7.23674C0.0945058 6.66452 0.0216014 6.08258 1.77739e-05 5.49761C-0.0066363 5.41687 0.0158188 5.33641 0.0633253 5.27077C0.278734 4.98311 0.545117 4.74558 0.797523 4.49408C0.888784 4.40367 0.940581 4.44394 0.961957 4.55079C0.97757 4.6158 0.987203 4.6821 0.990734 4.74887C1.008 5.685 1.29411 6.5406 1.76933 7.33783C2.47475 8.52054 3.49589 9.31038 4.7867 9.77146C5.75932 10.1158 6.75004 10.1331 7.74651 9.972C8.01068 9.93223 8.26872 9.85905 8.51442 9.7542C8.55881 9.73448 8.62294 9.69996 8.65665 9.7542C8.69036 9.80845 8.63199 9.84379 8.59417 9.87995C7.92744 10.5088 7.11843 10.967 6.23618 11.2155C5.74853 11.3425 5.25002 11.4234 4.74723 11.4572" fill="#173E87"/>
<path d="M8.15593 3.02947C9.95813 3.05002 11.4446 3.76096 12.6178 5.11791C12.9605 5.52865 13.2413 5.98716 13.4515 6.47896C13.5023 6.59497 13.5232 6.72184 13.5124 6.84799C13.4038 8.60931 12.7872 10.1931 11.8294 11.6585C11.8097 11.6984 11.7818 11.7337 11.7475 11.762C11.7132 11.7903 11.6733 11.8111 11.6304 11.8229C11.3016 11.8821 10.9727 11.9421 10.6438 11.998C10.5879 12.007 10.5139 12.0218 10.4753 11.9709C10.4366 11.9199 10.4983 11.8624 10.5287 11.8163C10.9289 11.2256 11.2116 10.5635 11.3616 9.86599C11.7225 8.08083 11.3517 6.46088 10.2007 5.04394C9.53309 4.21956 8.63839 3.60892 7.62727 3.28755C7.55575 3.26454 7.48504 3.24317 7.41598 3.21687C7.37076 3.19961 7.29758 3.19385 7.31156 3.12564C7.32554 3.05742 7.39378 3.07632 7.44393 3.07221C7.68071 3.05495 7.91586 3.00728 8.15593 3.02783" fill="#173E87"/>
<path d="M8.2809 2.64401C6.5379 2.73442 4.94042 3.48481 3.80336 5.10969C3.7713 5.15654 3.74416 5.23379 3.67346 5.2001C3.60275 5.1664 3.62742 5.09489 3.64057 5.03572C3.86009 4.10862 4.23089 3.25796 4.84012 2.50922C5.54225 1.64787 6.42855 1.0709 7.45544 0.692011C7.8879 0.532564 8.34667 0.467633 8.80051 0.407634C9.12938 0.364896 9.39823 0.572013 9.67119 0.707625C11.0221 1.37177 12.2112 2.32363 13.1547 3.49631C13.2163 3.56494 13.2597 3.64795 13.2808 3.73771C13.302 3.82748 13.3001 3.92111 13.2756 4.01C13.2205 4.25656 13.2073 4.50888 13.1736 4.75874C13.1638 4.83189 13.1597 4.92312 13.0758 4.94285C12.9919 4.96257 12.978 4.8697 12.9385 4.81956C12.3803 4.12515 11.6703 3.56794 10.863 3.19079C10.0557 2.81364 9.17266 2.62658 8.28172 2.64401" fill="#A682FF"/>
<path d="M1.55397 2.90619C1.62091 2.72505 1.72931 2.56208 1.87051 2.43031C2.69859 1.52443 3.68877 0.781282 4.79004 0.239142C5.12541 0.0648579 5.47109 -0.0888473 5.82515 -0.221119C5.89275 -0.251074 5.96602 -0.266068 6.03995 -0.265075C6.11389 -0.264082 6.18673 -0.247124 6.2535 -0.215365C6.50508 -0.089615 6.76325 0.0246276 7.01483 0.151199C7.07567 0.182431 7.17104 0.208731 7.16775 0.294208C7.16446 0.379685 7.06745 0.36818 7.00908 0.391193C5.99698 0.783237 5.13699 1.38486 4.4735 2.25032C3.93347 2.95214 3.56468 3.77024 3.39646 4.63956C3.2709 5.25065 3.25282 5.87893 3.34302 6.49622C3.47055 7.43426 3.83876 8.32333 4.41184 9.07697C4.43486 9.10656 4.45952 9.1345 4.4809 9.16409C4.50228 9.19368 4.54256 9.24627 4.51461 9.2849C4.47021 9.3449 4.41842 9.2923 4.37813 9.26847C4.06095 9.09074 3.75852 8.88791 3.47374 8.66191C2.70649 8.03144 2.11516 7.21354 1.75705 6.28746C1.57864 5.82638 1.43229 5.34721 1.42818 4.84011C1.42818 4.63956 1.41503 3.34508 1.54904 2.90619" fill="#173E87"/>
</g>
</g>
<defs>
<clipPath id="clip0_182_65">
<rect width="60" height="13" fill="white"/>
</clipPath>
<clipPath id="clip1_182_65">
<rect width="44.7618" height="8.35093" fill="white" transform="translate(15.2383 3.23334)"/>
</clipPath>
<clipPath id="clip2_182_65">
<rect width="13.5163" height="13" fill="white" transform="translate(-0.00112915 -0.017868)"/>
</clipPath>
</defs>
</svg>
