<svg width="21" height="20" viewBox="0 0 21 20" fill="none" xmlns="http://www.w3.org/2000/svg">
<path d="M16.6831 9.79126H13.8331C13.4915 9.79126 13.2081 9.50793 13.2081 9.16626V3.34126C13.2081 2.72459 13.4498 2.14959 13.8831 1.71626C14.3165 1.28293 14.8915 1.04126 15.5081 1.04126H15.5165C16.5581 1.04959 17.5414 1.45793 18.2914 2.19959C19.0414 2.95793 19.4498 3.95793 19.4498 4.99959V7.01626C19.4581 8.67459 18.3414 9.79126 16.6831 9.79126ZM14.4581 8.54126H16.6831C17.6498 8.54126 18.2081 7.98293 18.2081 7.01626V4.99959C18.2081 4.28293 17.9248 3.59959 17.4165 3.08293C16.9081 2.58293 16.2331 2.29959 15.5165 2.29126C15.5165 2.29126 15.5165 2.29126 15.5081 2.29126C15.2331 2.29126 14.9665 2.39959 14.7665 2.59959C14.5665 2.79959 14.4581 3.05793 14.4581 3.34126V8.54126Z" fill="#5B5656"/>
<path d="M7.9998 19.4413C7.60813 19.4413 7.24147 19.2913 6.96647 19.0079L5.58311 17.6163C5.50811 17.5413 5.39148 17.5329 5.30815 17.5996L3.88313 18.6663C3.44146 18.9996 2.85811 19.0579 2.35811 18.8079C1.85811 18.5579 1.5498 18.0579 1.5498 17.4996V4.99959C1.5498 2.48293 2.99147 1.04126 5.50814 1.04126H15.5081C15.8498 1.04126 16.1331 1.32459 16.1331 1.66626C16.1331 2.00793 15.8498 2.29126 15.5081 2.29126C14.9331 2.29126 14.4665 2.75793 14.4665 3.33293V17.4996C14.4665 18.0579 14.1581 18.5579 13.6581 18.8079C13.1664 19.0579 12.5748 18.9996 12.1331 18.6663L10.7081 17.5996C10.6248 17.5329 10.5081 17.5496 10.4415 17.6163L9.04146 19.0163C8.75813 19.2913 8.39146 19.4413 7.9998 19.4413ZM5.42477 16.3079C5.80811 16.3079 6.18311 16.4496 6.46644 16.7413L7.8498 18.1329C7.8998 18.1829 7.96646 18.1913 7.9998 18.1913C8.03313 18.1913 8.09979 18.1829 8.14979 18.1329L9.54978 16.7329C10.0665 16.2163 10.8832 16.1663 11.4582 16.6079L12.8748 17.6663C12.9664 17.7329 13.0498 17.7079 13.0915 17.6829C13.1331 17.6579 13.2081 17.6079 13.2081 17.4996V3.33293C13.2081 2.95793 13.2998 2.59959 13.4581 2.29126H5.4998C3.6498 2.29126 2.79146 3.14959 2.79146 4.99959V17.4996C2.79146 17.6163 2.86648 17.6663 2.90814 17.6913C2.95814 17.7163 3.04148 17.7329 3.12482 17.6663L4.54978 16.5996C4.80812 16.4079 5.11644 16.3079 5.42477 16.3079Z" fill="#5B5656"/>
<path d="M10.5 8.125H5.5C5.15833 8.125 4.875 7.84167 4.875 7.5C4.875 7.15833 5.15833 6.875 5.5 6.875H10.5C10.8417 6.875 11.125 7.15833 11.125 7.5C11.125 7.84167 10.8417 8.125 10.5 8.125Z" fill="#5B5656"/>
<path d="M9.875 11.4587H6.125C5.78333 11.4587 5.5 11.1754 5.5 10.8337C5.5 10.4921 5.78333 10.2087 6.125 10.2087H9.875C10.2167 10.2087 10.5 10.4921 10.5 10.8337C10.5 11.1754 10.2167 11.4587 9.875 11.4587Z" fill="#5B5656"/>
</svg>
