<svg width="15" height="22" viewBox="0 0 15 22" fill="none" xmlns="http://www.w3.org/2000/svg">
<mask id="path-1-outside-1_1_701" maskUnits="userSpaceOnUse" x="-0.5" y="0" width="16" height="22" fill="black">
<rect fill="white" x="-0.5" width="16" height="22"/>
<path fill-rule="evenodd" clip-rule="evenodd" d="M13.3 2H1.7C1.58954 2 1.5 2.08954 1.5 2.2V11.8C1.5 11.9105 1.58954 12 1.7 12H1.5V12.9834C0.932457 12.8882 0.5 12.3946 0.5 11.8V2.2C0.5 1.53726 1.03726 1 1.7 1H13.3C13.9627 1 14.5 1.53726 14.5 2.2V11.8C14.5 12.3946 14.0675 12.8882 13.5 12.9834V12H13.3C13.4105 12 13.5 11.9105 13.5 11.8V2.2C13.5 2.08954 13.4105 2 13.3 2ZM13.5 12.9834C13.435 12.9943 13.3681 13 13.3 13H12.5V20H2.5L2.5 13H1.7C1.63186 13 1.56504 12.9943 1.5 12.9834V13V20C1.5 20.5523 1.94772 21 2.5 21H4.5C4.5 20.9475 4.58277 20.8955 4.74359 20.8469C4.9044 20.7984 5.14011 20.7543 5.43726 20.7172C5.73441 20.68 6.08717 20.6506 6.47541 20.6304C6.86365 20.6103 7.27977 20.6 7.7 20.6C8.12023 20.6 8.53634 20.6103 8.92459 20.6304C9.31283 20.6506 9.66559 20.68 9.96274 20.7172C10.2599 20.7543 10.4956 20.7984 10.6564 20.8469C10.8172 20.8955 10.9 20.9475 10.9 21H12.5C13.0523 21 13.5 20.5523 13.5 20V13V12.9834ZM11.3 4H3.7C3.58954 4 3.5 4.08954 3.5 4.2V10.8C3.5 10.9105 3.58954 11 3.7 11H11.3C11.4105 11 11.5 10.9105 11.5 10.8V4.2C11.5 4.08954 11.4105 4 11.3 4ZM3.7 3C3.03726 3 2.5 3.53726 2.5 4.2V10.8C2.5 11.4627 3.03726 12 3.7 12H11.3C11.9627 12 12.5 11.4627 12.5 10.8V4.2C12.5 3.53726 11.9627 3 11.3 3H3.7ZM5.41701 12.7998H3.5V14.3408H5.41701V12.7998ZM8.4585 17.6588H6.5415V19.1998H8.4585V17.6588ZM6.5415 12.7998H8.4585V14.3408H6.5415V12.7998ZM11.5 12.7998H9.58299V14.3408H11.5V12.7998ZM9.58299 15.2293H11.5V19.1928H9.58299V15.2293ZM8.4585 15.2293H6.5415V16.7703H8.4585V15.2293ZM3.5 15.2293H5.41701V16.7703H3.5V15.2293ZM5.41701 17.6588H3.5V19.1998H5.41701V17.6588Z"/>
</mask>
<path fill-rule="evenodd" clip-rule="evenodd" d="M13.3 2H1.7C1.58954 2 1.5 2.08954 1.5 2.2V11.8C1.5 11.9105 1.58954 12 1.7 12H1.5V12.9834C0.932457 12.8882 0.5 12.3946 0.5 11.8V2.2C0.5 1.53726 1.03726 1 1.7 1H13.3C13.9627 1 14.5 1.53726 14.5 2.2V11.8C14.5 12.3946 14.0675 12.8882 13.5 12.9834V12H13.3C13.4105 12 13.5 11.9105 13.5 11.8V2.2C13.5 2.08954 13.4105 2 13.3 2ZM13.5 12.9834C13.435 12.9943 13.3681 13 13.3 13H12.5V20H2.5L2.5 13H1.7C1.63186 13 1.56504 12.9943 1.5 12.9834V13V20C1.5 20.5523 1.94772 21 2.5 21H4.5C4.5 20.9475 4.58277 20.8955 4.74359 20.8469C4.9044 20.7984 5.14011 20.7543 5.43726 20.7172C5.73441 20.68 6.08717 20.6506 6.47541 20.6304C6.86365 20.6103 7.27977 20.6 7.7 20.6C8.12023 20.6 8.53634 20.6103 8.92459 20.6304C9.31283 20.6506 9.66559 20.68 9.96274 20.7172C10.2599 20.7543 10.4956 20.7984 10.6564 20.8469C10.8172 20.8955 10.9 20.9475 10.9 21H12.5C13.0523 21 13.5 20.5523 13.5 20V13V12.9834ZM11.3 4H3.7C3.58954 4 3.5 4.08954 3.5 4.2V10.8C3.5 10.9105 3.58954 11 3.7 11H11.3C11.4105 11 11.5 10.9105 11.5 10.8V4.2C11.5 4.08954 11.4105 4 11.3 4ZM3.7 3C3.03726 3 2.5 3.53726 2.5 4.2V10.8C2.5 11.4627 3.03726 12 3.7 12H11.3C11.9627 12 12.5 11.4627 12.5 10.8V4.2C12.5 3.53726 11.9627 3 11.3 3H3.7ZM5.41701 12.7998H3.5V14.3408H5.41701V12.7998ZM8.4585 17.6588H6.5415V19.1998H8.4585V17.6588ZM6.5415 12.7998H8.4585V14.3408H6.5415V12.7998ZM11.5 12.7998H9.58299V14.3408H11.5V12.7998ZM9.58299 15.2293H11.5V19.1928H9.58299V15.2293ZM8.4585 15.2293H6.5415V16.7703H8.4585V15.2293ZM3.5 15.2293H5.41701V16.7703H3.5V15.2293ZM5.41701 17.6588H3.5V19.1998H5.41701V17.6588Z" fill="#5B5656"/>
<path d="M1.5 12V11.9H1.4V12H1.5ZM13.5 12H13.6V11.9H13.5V12ZM12.5 13V12.9H12.4V13H12.5ZM12.5 20V20.1H12.6V20H12.5ZM2.5 20H2.4V20.1H2.5V20ZM2.5 13H2.6V12.9H2.5V13ZM4.5 21V21.1H4.6V21H4.5ZM4.74359 20.8469L4.71469 20.7512H4.71469L4.74359 20.8469ZM5.43726 20.7172L5.42485 20.6179L5.43726 20.7172ZM6.47541 20.6304L6.47024 20.5306H6.47024L6.47541 20.6304ZM8.92459 20.6304L8.92976 20.5306L8.92459 20.6304ZM9.96274 20.7172L9.95034 20.8164L9.96274 20.7172ZM10.6564 20.8469L10.6853 20.7512H10.6853L10.6564 20.8469ZM10.9 21H10.8V21.1H10.9V21ZM3.5 12.7998V12.6998H3.4V12.7998H3.5ZM5.41701 12.7998H5.51701V12.6998H5.41701V12.7998ZM3.5 14.3408H3.4V14.4408H3.5V14.3408ZM5.41701 14.3408V14.4408H5.51701V14.3408H5.41701ZM6.5415 17.6588V17.5588H6.4415V17.6588H6.5415ZM8.4585 17.6588H8.5585V17.5588H8.4585V17.6588ZM6.5415 19.1998H6.4415V19.2998H6.5415V19.1998ZM8.4585 19.1998V19.2998H8.5585V19.1998H8.4585ZM8.4585 12.7998H8.5585V12.6998H8.4585V12.7998ZM6.5415 12.7998V12.6998H6.4415V12.7998H6.5415ZM8.4585 14.3408V14.4408H8.5585V14.3408H8.4585ZM6.5415 14.3408H6.4415V14.4408H6.5415V14.3408ZM9.58299 12.7998V12.6998H9.48299V12.7998H9.58299ZM11.5 12.7998H11.6V12.6998H11.5V12.7998ZM9.58299 14.3408H9.48299V14.4408H9.58299V14.3408ZM11.5 14.3408V14.4408H11.6V14.3408H11.5ZM11.5 15.2293H11.6V15.1293H11.5V15.2293ZM9.58299 15.2293V15.1293H9.48299V15.2293H9.58299ZM11.5 19.1928V19.2928H11.6V19.1928H11.5ZM9.58299 19.1928H9.48299V19.2928H9.58299V19.1928ZM6.5415 15.2293V15.1293H6.4415V15.2293H6.5415ZM8.4585 15.2293H8.5585V15.1293H8.4585V15.2293ZM6.5415 16.7703H6.4415V16.8703H6.5415V16.7703ZM8.4585 16.7703V16.8703H8.5585V16.7703H8.4585ZM5.41701 15.2293H5.51701V15.1293H5.41701V15.2293ZM3.5 15.2293V15.1293H3.4V15.2293H3.5ZM5.41701 16.7703V16.8703H5.51701V16.7703H5.41701ZM3.5 16.7703H3.4V16.8703H3.5V16.7703ZM3.5 17.6588V17.5588H3.4V17.6588H3.5ZM5.41701 17.6588H5.51701V17.5588H5.41701V17.6588ZM3.5 19.1998H3.4V19.2998H3.5V19.1998ZM5.41701 19.1998V19.2998H5.51701V19.1998H5.41701ZM1.7 2.1H13.3V1.9H1.7V2.1ZM1.6 2.2C1.6 2.14477 1.64477 2.1 1.7 2.1V1.9C1.53431 1.9 1.4 2.03431 1.4 2.2H1.6ZM1.6 11.8V2.2H1.4V11.8H1.6ZM1.7 11.9C1.64477 11.9 1.6 11.8552 1.6 11.8H1.4C1.4 11.9657 1.53431 12.1 1.7 12.1V11.9ZM1.5 12.1H1.7V11.9H1.5V12.1ZM1.6 12.9834V12H1.4V12.9834H1.6ZM1.51655 12.8848C0.996374 12.7975 0.6 12.345 0.6 11.8H0.4C0.4 12.4442 0.868541 12.9789 1.48345 13.082L1.51655 12.8848ZM0.6 11.8V2.2H0.4V11.8H0.6ZM0.6 2.2C0.6 1.59249 1.09249 1.1 1.7 1.1V0.9C0.98203 0.9 0.4 1.48203 0.4 2.2H0.6ZM1.7 1.1H13.3V0.9H1.7V1.1ZM13.3 1.1C13.9075 1.1 14.4 1.59249 14.4 2.2H14.6C14.6 1.48203 14.018 0.9 13.3 0.9V1.1ZM14.4 2.2V11.8H14.6V2.2H14.4ZM14.4 11.8C14.4 12.345 14.0036 12.7975 13.4835 12.8848L13.5165 13.082C14.1315 12.9789 14.6 12.4442 14.6 11.8H14.4ZM13.4 12V12.9834H13.6V12H13.4ZM13.3 12.1H13.5V11.9H13.3V12.1ZM13.4 11.8C13.4 11.8552 13.3552 11.9 13.3 11.9V12.1C13.4657 12.1 13.6 11.9657 13.6 11.8H13.4ZM13.4 2.2V11.8H13.6V2.2H13.4ZM13.3 2.1C13.3552 2.1 13.4 2.14477 13.4 2.2H13.6C13.6 2.03431 13.4657 1.9 13.3 1.9V2.1ZM13.4835 12.8848C13.4239 12.8948 13.3626 12.9 13.3 12.9V13.1C13.3737 13.1 13.4461 13.0939 13.5165 13.082L13.4835 12.8848ZM13.3 12.9H12.5V13.1H13.3V12.9ZM12.4 13V20H12.6V13H12.4ZM12.5 19.9H2.5V20.1H12.5V19.9ZM2.6 20L2.6 13H2.4L2.4 20H2.6ZM2.5 12.9H1.7V13.1H2.5V12.9ZM1.7 12.9C1.63742 12.9 1.57614 12.8948 1.51655 12.8848L1.48345 13.082C1.55394 13.0939 1.62629 13.1 1.7 13.1V12.9ZM1.6 13V12.9834H1.4V13H1.6ZM1.6 20V13H1.4V20H1.6ZM2.5 20.9C2.00294 20.9 1.6 20.4971 1.6 20H1.4C1.4 20.6075 1.89249 21.1 2.5 21.1V20.9ZM4.5 20.9H2.5V21.1H4.5V20.9ZM4.71469 20.7512C4.63099 20.7765 4.5602 20.8047 4.50828 20.8373C4.4624 20.8661 4.4 20.9183 4.4 21H4.6C4.6 21.0292 4.57899 21.0291 4.6147 21.0066C4.64436 20.988 4.69537 20.9659 4.77248 20.9427L4.71469 20.7512ZM5.42485 20.6179C5.12572 20.6553 4.88352 20.7002 4.71469 20.7512L4.77248 20.9427C4.92529 20.8965 5.1545 20.8533 5.44966 20.8164L5.42485 20.6179ZM6.47024 20.5306C6.08025 20.5508 5.72499 20.5804 5.42485 20.6179L5.44966 20.8164C5.74382 20.7796 6.09409 20.7503 6.48058 20.7303L6.47024 20.5306ZM7.7 20.5C7.27818 20.5 6.86034 20.5104 6.47024 20.5306L6.48058 20.7303C6.86697 20.7103 7.28136 20.7 7.7 20.7V20.5ZM8.92976 20.5306C8.53966 20.5104 8.12182 20.5 7.7 20.5V20.7C8.11864 20.7 8.53303 20.7103 8.91942 20.7303L8.92976 20.5306ZM9.97514 20.6179C9.67501 20.5804 9.31975 20.5508 8.92976 20.5306L8.91942 20.7303C9.30591 20.7503 9.65618 20.7796 9.95034 20.8164L9.97514 20.6179ZM10.6853 20.7512C10.5165 20.7002 10.2743 20.6553 9.97514 20.6179L9.95034 20.8164C10.2455 20.8533 10.4747 20.8965 10.6275 20.9427L10.6853 20.7512ZM11 21C11 20.9183 10.9376 20.8661 10.8917 20.8373C10.8398 20.8047 10.769 20.7765 10.6853 20.7512L10.6275 20.9427C10.7046 20.9659 10.7556 20.988 10.7853 21.0066C10.821 21.0291 10.8 21.0292 10.8 21H11ZM12.5 20.9H10.9V21.1H12.5V20.9ZM13.4 20C13.4 20.4971 12.9971 20.9 12.5 20.9V21.1C13.1075 21.1 13.6 20.6075 13.6 20H13.4ZM13.4 13V20H13.6V13H13.4ZM13.4 12.9834V13H13.6V12.9834H13.4ZM3.7 4.1H11.3V3.9H3.7V4.1ZM3.6 4.2C3.6 4.14477 3.64477 4.1 3.7 4.1V3.9C3.53431 3.9 3.4 4.03431 3.4 4.2H3.6ZM3.6 10.8V4.2H3.4V10.8H3.6ZM3.7 10.9C3.64477 10.9 3.6 10.8552 3.6 10.8H3.4C3.4 10.9657 3.53431 11.1 3.7 11.1V10.9ZM11.3 10.9H3.7V11.1H11.3V10.9ZM11.4 10.8C11.4 10.8552 11.3552 10.9 11.3 10.9V11.1C11.4657 11.1 11.6 10.9657 11.6 10.8H11.4ZM11.4 4.2V10.8H11.6V4.2H11.4ZM11.3 4.1C11.3552 4.1 11.4 4.14477 11.4 4.2H11.6C11.6 4.03431 11.4657 3.9 11.3 3.9V4.1ZM2.6 4.2C2.6 3.59249 3.09249 3.1 3.7 3.1V2.9C2.98203 2.9 2.4 3.48203 2.4 4.2H2.6ZM2.6 10.8V4.2H2.4V10.8H2.6ZM3.7 11.9C3.09249 11.9 2.6 11.4075 2.6 10.8H2.4C2.4 11.518 2.98203 12.1 3.7 12.1V11.9ZM11.3 11.9H3.7V12.1H11.3V11.9ZM12.4 10.8C12.4 11.4075 11.9075 11.9 11.3 11.9V12.1C12.018 12.1 12.6 11.518 12.6 10.8H12.4ZM12.4 4.2V10.8H12.6V4.2H12.4ZM11.3 3.1C11.9075 3.1 12.4 3.59249 12.4 4.2H12.6C12.6 3.48203 12.018 2.9 11.3 2.9V3.1ZM3.7 3.1H11.3V2.9H3.7V3.1ZM3.5 12.8998H5.41701V12.6998H3.5V12.8998ZM3.6 14.3408V12.7998H3.4V14.3408H3.6ZM5.41701 14.2408H3.5V14.4408H5.41701V14.2408ZM5.31701 12.7998V14.3408H5.51701V12.7998H5.31701ZM6.5415 17.7588H8.4585V17.5588H6.5415V17.7588ZM6.6415 19.1998V17.6588H6.4415V19.1998H6.6415ZM8.4585 19.0998H6.5415V19.2998H8.4585V19.0998ZM8.3585 17.6588V19.1998H8.5585V17.6588H8.3585ZM8.4585 12.6998H6.5415V12.8998H8.4585V12.6998ZM8.5585 14.3408V12.7998H8.3585V14.3408H8.5585ZM6.5415 14.4408H8.4585V14.2408H6.5415V14.4408ZM6.4415 12.7998V14.3408H6.6415V12.7998H6.4415ZM9.58299 12.8998H11.5V12.6998H9.58299V12.8998ZM9.68299 14.3408V12.7998H9.48299V14.3408H9.68299ZM11.5 14.2408H9.58299V14.4408H11.5V14.2408ZM11.4 12.7998V14.3408H11.6V12.7998H11.4ZM11.5 15.1293H9.58299V15.3293H11.5V15.1293ZM11.6 19.1928V15.2293H11.4V19.1928H11.6ZM9.58299 19.2928H11.5V19.0928H9.58299V19.2928ZM9.48299 15.2293V19.1928H9.68299V15.2293H9.48299ZM6.5415 15.3293H8.4585V15.1293H6.5415V15.3293ZM6.6415 16.7703V15.2293H6.4415V16.7703H6.6415ZM8.4585 16.6703H6.5415V16.8703H8.4585V16.6703ZM8.3585 15.2293V16.7703H8.5585V15.2293H8.3585ZM5.41701 15.1293H3.5V15.3293H5.41701V15.1293ZM5.51701 16.7703V15.2293H5.31701V16.7703H5.51701ZM3.5 16.8703H5.41701V16.6703H3.5V16.8703ZM3.4 15.2293V16.7703H3.6V15.2293H3.4ZM3.5 17.7588H5.41701V17.5588H3.5V17.7588ZM3.6 19.1998V17.6588H3.4V19.1998H3.6ZM5.41701 19.0998H3.5V19.2998H5.41701V19.0998ZM5.31701 17.6588V19.1998H5.51701V17.6588H5.31701Z" fill="#5B5656" mask="url(#path-1-outside-1_1_701)"/>
</svg>
