<svg width="14" height="14" viewBox="0 0 14 14" fill="none" xmlns="http://www.w3.org/2000/svg">
<path d="M2.5 2.45H2.45V2.5V4V4.05H2.5H4H4.05V4V2.5V2.45H4H2.5Z" fill="white" stroke="white" stroke-width="0.1"/>
<path d="M5.55 1V0.95H5.5H1H0.95V1V5.5V5.55H1H5.5H5.55V5.5V1ZM4.05 10V9.95H4H2.5H2.45V10V11.5V11.55H2.5H4H4.05V11.5V10ZM1.8 4.7V1.8H4.7V4.7H1.8Z" fill="white" stroke="white" stroke-width="0.1"/>
<path d="M5.55 8.5V8.45H5.5H1H0.95V8.5V13V13.05H1H5.5H5.55V13V8.5ZM10 2.45H9.95V2.5V4V4.05H10H11.5H11.55V4V2.5V2.45H11.5H10ZM1.8 12.2V9.3H4.7V12.2H1.8Z" fill="white" stroke="white" stroke-width="0.1"/>
<path d="M8.5 0.95H8.45V1V5.5V5.55H8.5H13H13.05V5.5V1V0.95H13H8.5ZM7 0.95H6.95V1V1.7H6.25H6.2V1.75V4V4.05H6.25H6.95V5.45H6.25H6.2V5.5V6.2H5.5H5.45V6.25V6.95H3.3V6.25V6.2H3.25H1H0.95V6.25V7.75V7.8H1H1.75H1.8V7.75V7.05H2.45V7.75V7.8H2.5H5.5H5.55V7.75V7.05H6.2V7.75V7.8H6.25H8.5H8.55V7.75V7.05H11.5H11.55V7V6.25V6.2H11.5H7.75H7.7V6.25V6.95H7.05V5.55H7.75H7.8V5.5V4V3.95H7.75H7.05V2.55H7.75H7.8V2.5V1V0.95H7.75H7ZM13 7.8H13.05V7.75V6.25V6.2H13H12.25H12.2V6.25V7.7H11.5H11.45V7.75V9.25V9.3H11.5H13H13.05V9.25V8.5V8.45H13H12.3V7.8H13ZM9.25 7.7H9.2V7.75V9.25V9.3H9.25H9.95V9.95H9.25H9.2V10V10.7H7.75H7.7V10.75V11.5V11.55H7.75H10H10.05V11.5V10.05H10.7V11.5V11.55H10.75H11.5H11.55V11.5V10.8H13H13.05V10.75V10V9.95H13H10.8V9.25V9.2H10.75H10.05V8.55H10.75H10.8V8.5V7.75V7.7H10.75H9.25ZM6.25 9.3H7.7V10V10.05H7.75H8.5H8.55V10V8.5V8.45H8.5H6.25H6.2V8.5V9.25V9.3H6.25ZM12.2 1.8V4.7H9.3V1.8H12.2Z" fill="white" stroke="white" stroke-width="0.1"/>
<path d="M6.25 9.95H6.2V10V13V13.05H6.25H10H10.05V13V12.25V12.2H10H7.05V10V9.95H7H6.25ZM13.05 11.5V11.45H13H12.25H12.2V11.5V12.2H10.75H10.7V12.25V13V13.05H10.75H13H13.05V13V11.5Z" fill="white" stroke="white" stroke-width="0.1"/>
</svg>
