<svg width="21" height="20" viewBox="0 0 21 20" fill="none" xmlns="http://www.w3.org/2000/svg">
<path d="M10.5 13.125C8.775 13.125 7.375 11.725 7.375 10C7.375 8.275 8.775 6.875 10.5 6.875C12.225 6.875 13.625 8.275 13.625 10C13.625 11.725 12.225 13.125 10.5 13.125ZM10.5 8.125C9.46667 8.125 8.625 8.96667 8.625 10C8.625 11.0333 9.46667 11.875 10.5 11.875C11.5333 11.875 12.375 11.0333 12.375 10C12.375 8.96667 11.5333 8.125 10.5 8.125Z" fill="#5B5656"/>
<path d="M13.1743 18.4917C12.9993 18.4917 12.8243 18.4667 12.6493 18.4251C12.1327 18.2834 11.6993 17.9584 11.4243 17.5001L11.3243 17.3334C10.8327 16.4834 10.1577 16.4834 9.66602 17.3334L9.57435 17.4917C9.29935 17.9584 8.86602 18.2917 8.34935 18.4251C7.82435 18.5667 7.28268 18.4917 6.82435 18.2167L5.39102 17.3917C4.88268 17.1001 4.51602 16.6251 4.35768 16.0501C4.20768 15.4751 4.28268 14.8834 4.57435 14.3751C4.81602 13.9501 4.88268 13.5667 4.74102 13.3251C4.59935 13.0834 4.24102 12.9417 3.74935 12.9417C2.53268 12.9417 1.54102 11.9501 1.54102 10.7334V9.26674C1.54102 8.05008 2.53268 7.05841 3.74935 7.05841C4.24102 7.05841 4.59935 6.91674 4.74102 6.67508C4.88268 6.43341 4.82435 6.05008 4.57435 5.62508C4.28268 5.11674 4.20768 4.51674 4.35768 3.95008C4.50768 3.37508 4.87435 2.90008 5.39102 2.60841L6.83268 1.78341C7.77435 1.22508 9.01602 1.55008 9.58268 2.50841L9.68268 2.67508C10.1743 3.52508 10.8493 3.52508 11.341 2.67508L11.4327 2.51674C11.9993 1.55008 13.241 1.22508 14.191 1.79174L15.6243 2.61674C16.1327 2.90841 16.4993 3.38341 16.6577 3.95841C16.8077 4.53341 16.7327 5.12508 16.441 5.63341C16.1993 6.05841 16.1327 6.44174 16.2744 6.68341C16.416 6.92508 16.7744 7.06674 17.266 7.06674C18.4827 7.06674 19.4743 8.05841 19.4743 9.27508V10.7417C19.4743 11.9584 18.4827 12.9501 17.266 12.9501C16.7744 12.9501 16.416 13.0917 16.2744 13.3334C16.1327 13.5751 16.191 13.9584 16.441 14.3834C16.7327 14.8917 16.816 15.4917 16.6577 16.0584C16.5077 16.6334 16.141 17.1084 15.6243 17.4001L14.1827 18.2251C13.866 18.4001 13.5243 18.4917 13.1743 18.4917ZM10.4993 15.4084C11.241 15.4084 11.9327 15.8751 12.4077 16.7001L12.4993 16.8584C12.5993 17.0334 12.766 17.1584 12.966 17.2084C13.166 17.2584 13.366 17.2334 13.5327 17.1334L14.9743 16.3001C15.191 16.1751 15.3577 15.9667 15.4243 15.7167C15.491 15.4667 15.4577 15.2084 15.3327 14.9917C14.8577 14.1751 14.7993 13.3334 15.166 12.6917C15.5327 12.0501 16.291 11.6834 17.241 11.6834C17.7743 11.6834 18.1994 11.2584 18.1994 10.7251V9.25841C18.1994 8.73341 17.7743 8.30008 17.241 8.30008C16.291 8.30008 15.5327 7.93341 15.166 7.29174C14.7993 6.65008 14.8577 5.80841 15.3327 4.99174C15.4577 4.77508 15.491 4.51674 15.4243 4.26674C15.3577 4.01674 15.1993 3.81674 14.9827 3.68341L13.541 2.85841C13.1827 2.64174 12.7077 2.76674 12.491 3.13341L12.3993 3.29174C11.9243 4.11674 11.2327 4.58341 10.491 4.58341C9.74935 4.58341 9.05768 4.11674 8.58268 3.29174L8.49102 3.12508C8.28268 2.77508 7.81602 2.65008 7.45768 2.85841L6.01602 3.69174C5.79935 3.81674 5.63268 4.02508 5.56602 4.27508C5.49935 4.52508 5.53268 4.78341 5.65768 5.00008C6.13268 5.81674 6.19102 6.65841 5.82435 7.30008C5.45768 7.94174 4.69935 8.30841 3.74935 8.30841C3.21602 8.30841 2.79102 8.73341 2.79102 9.26674V10.7334C2.79102 11.2584 3.21602 11.6917 3.74935 11.6917C4.69935 11.6917 5.45768 12.0584 5.82435 12.7001C6.19102 13.3417 6.13268 14.1834 5.65768 15.0001C5.53268 15.2167 5.49935 15.4751 5.56602 15.7251C5.63268 15.9751 5.79102 16.1751 6.00768 16.3084L7.44935 17.1334C7.62435 17.2417 7.83268 17.2667 8.02435 17.2167C8.22435 17.1667 8.39102 17.0334 8.49935 16.8584L8.59102 16.7001C9.06602 15.8834 9.75768 15.4084 10.4993 15.4084Z" fill="#5B5656"/>
</svg>
