<svg width="22" height="16" viewBox="0 0 22 16" fill="none" xmlns="http://www.w3.org/2000/svg">
<path fill-rule="evenodd" clip-rule="evenodd" d="M18.209 6.17227V2.77531L17.6257 3.35861C17.3906 3.59375 17.0014 3.59375 16.7662 3.35861C16.5311 3.12346 16.5311 2.73426 16.7662 2.49911L18.3879 0.877422C18.5096 0.755795 18.6636 0.699036 18.8177 0.699036C18.9717 0.699036 19.1258 0.755795 19.2474 0.877422C19.2525 0.882489 19.2575 0.887627 19.2623 0.892834L20.8686 2.49914C21.1038 2.73429 21.1038 3.12349 20.8686 3.35864C20.6335 3.59378 20.2443 3.59378 20.0091 3.35864L19.4253 2.77483V6.17227C19.4253 6.50472 19.1496 6.78041 18.8172 6.78041C18.4847 6.78041 18.209 6.50472 18.209 6.17227ZM4.70829 15.6999H13.7249C16.952 15.6999 17.9332 14.7269 17.9251 11.5241V9.8375C17.9251 9.50505 17.6494 9.22936 17.3169 9.22936C16.9845 9.22936 16.7088 9.50505 16.7088 9.8375V11.5241C16.7088 14.0377 16.2628 14.4755 13.7168 14.4755H4.70829C2.16223 14.4755 1.71627 14.0377 1.71627 11.5241V6.10632H10.9586C11.2822 6.10632 11.5506 5.83795 11.5506 5.51433C11.5506 5.1907 11.2822 4.92233 10.9586 4.92233H1.71627V4.86702C1.71627 2.3534 2.16223 1.91554 4.70829 1.91554H11.2437C11.5761 1.91554 11.8518 1.63985 11.8518 1.30741C11.8518 0.97496 11.5761 0.699273 11.2437 0.699273H4.70829C1.48112 0.699273 0.5 1.67229 0.5 4.86702V5.51433V11.5322C0.5 14.7269 1.48112 15.6999 4.70829 15.6999ZM4.2502 12.4209H5.82885C6.15248 12.4209 6.42085 12.1525 6.42085 11.8289C6.42085 11.5052 6.15248 11.2369 5.82885 11.2369H4.2502C3.92657 11.2369 3.6582 11.5052 3.6582 11.8289C3.6582 12.1525 3.92657 12.4209 4.2502 12.4209ZM10.9583 12.4209H7.80098C7.47736 12.4209 7.20898 12.1525 7.20898 11.8289C7.20898 11.5052 7.47736 11.2369 7.80098 11.2369H10.9583C11.2819 11.2369 11.5503 11.5052 11.5503 11.8289C11.5503 12.1525 11.2819 12.4209 10.9583 12.4209ZM13.7539 4.70437V1.30741C13.7539 0.97496 14.0296 0.699273 14.3621 0.699273C14.6945 0.699273 14.9702 0.97496 14.9702 1.30741V4.70485L15.554 4.12104C15.7891 3.88589 16.1783 3.88589 16.4135 4.12104C16.6486 4.35618 16.6486 4.74539 16.4135 4.98053L14.8072 6.58684L14.7995 6.59491L14.7923 6.60226C14.6707 6.72388 14.5166 6.78064 14.3626 6.78064C14.2085 6.78064 14.0544 6.72388 13.9328 6.60226L12.3111 4.98057C12.076 4.74542 12.076 4.35622 12.3111 4.12107C12.5463 3.88593 12.9355 3.88593 13.1706 4.12107L13.7539 4.70437Z" fill="#5B5656"/>
</svg>
